<svg width="20" height="21" viewBox="0 0 20 21" fill="none" xmlns="http://www.w3.org/2000/svg">
<path d="M18.4117 5.42001C17.1983 2.97001 14.8533 1.16168 12.135 0.566679C9.28833 -0.0633207 6.37167 0.613346 4.14333 2.41001C1.90333 4.19501 0.631668 6.86668 0.631668 9.72501C0.631668 12.7467 2.44 15.9083 5.17 17.74V18.7083C5.15833 19.035 5.14667 19.5367 5.54333 19.945C5.95167 20.365 6.55833 20.4117 7.03667 20.4117H13.0217C13.6517 20.4117 14.13 20.2367 14.4567 19.91C14.9 19.455 14.8883 18.8717 14.8767 18.5567V17.74C18.4933 15.3017 20.7683 10.1567 18.4117 5.42001ZM12.0067 11.5567L10.7583 13.7267C10.595 14.0067 10.3033 14.17 10 14.17C9.84833 14.17 9.69667 14.135 9.56833 14.0533C9.14833 13.8083 9.00833 13.2717 9.24167 12.8633L10.2333 11.1367H9.25333C8.67 11.1367 8.19167 10.88 7.935 10.4483C7.67833 10.005 7.70167 9.46835 7.99333 8.95501L9.24167 6.78501C9.48667 6.36501 10.0233 6.22501 10.4317 6.45835C10.8517 6.70335 10.9917 7.24001 10.7583 7.64835L9.76667 9.37501H10.7467C11.33 9.37501 11.8083 9.63168 12.065 10.0633C12.3217 10.5067 12.2983 11.055 12.0067 11.5567Z" fill="white"/>
</svg>
